<svg xmlns="http://www.w3.org/2000/svg" xmlns:xlink="http://www.w3.org/1999/xlink" viewBox="0 0 696.3 590.34"><defs><style>.cls-1{fill:url(#linear-gradient);}.cls-2{fill:url(#linear-gradient-2);}.cls-3{fill:url(#linear-gradient-3);}.cls-4{fill:url(#linear-gradient-4);}.cls-5,.cls-6{opacity:0.7;}.cls-5{fill:url(#linear-gradient-5);}.cls-6{fill:url(#linear-gradient-6);}.cls-7{fill:#f8a98a;}.cls-8{fill:#27333f;}.cls-9{fill:#553991;}.cls-10,.cls-14{fill:none;stroke:#42296b;stroke-miterlimit:10;}.cls-11{fill:url(#linear-gradient-7);}.cls-12{fill:url(#linear-gradient-8);}.cls-13{fill:#42296b;}.cls-14{opacity:0.34;}.cls-15{fill:url(#linear-gradient-9);}.cls-16{fill:url(#linear-gradient-10);}.cls-17{fill:url(#linear-gradient-11);}.cls-18{fill:#d23d54;}.cls-19{fill:#ba2a4c;}.cls-20{isolation:isolate;}.cls-21{fill:#a573bf;}.cls-22{fill:#6f4d80;}.cls-23{fill:#7b558d;}.cls-24{fill:#c479ba;}.cls-25{fill:#875480;}.cls-26{fill:#8c5785;}.cls-27{fill:#7a4daa;}.cls-28{fill:#482d64;}.cls-29{fill:#623e88;}</style><linearGradient id="linear-gradient" x1="-602.81" y1="314.09" x2="-1001.92" y2="314.09" gradientTransform="matrix(0.42, 0.91, -0.91, 0.42, 1017.74, 978.7)" gradientUnits="userSpaceOnUse"><stop offset="0" stop-color="#fff" stop-opacity="0"/><stop offset="1" stop-color="#f90"/></linearGradient><linearGradient id="linear-gradient-2" x1="-617.23" y1="307.59" x2="-987.83" y2="307.59" gradientTransform="matrix(0.42, 0.91, -0.91, 0.42, 1017.74, 978.7)" gradientUnits="userSpaceOnUse"><stop offset="0" stop-color="#fff" stop-opacity="0"/><stop offset="1" stop-color="#ffea00"/></linearGradient><linearGradient id="linear-gradient-3" x1="381.93" y1="2923.53" x2="-188.21" y2="2923.53" gradientTransform="matrix(0.01, -0.96, 1, 0.02, -2604.18, 321.38)" gradientUnits="userSpaceOnUse"><stop offset="0" stop-color="#fff" stop-opacity="0"/><stop offset="1" stop-color="#8a3479"/></linearGradient><linearGradient id="linear-gradient-4" x1="374.89" y1="2914.05" x2="-154.53" y2="2914.05" gradientTransform="matrix(0.01, -0.96, 1, 0.02, -2604.18, 321.38)" gradientUnits="userSpaceOnUse"><stop offset="0" stop-color="#fff" stop-opacity="0"/><stop offset="1" stop-color="#8a3499"/></linearGradient><linearGradient id="linear-gradient-5" x1="1923.59" y1="329.02" x2="2126.01" y2="329.02" gradientTransform="matrix(0.01, -0.73, 0.65, 0.01, 4.02, 1658.71)" gradientUnits="userSpaceOnUse"><stop offset="0" stop-color="#fff" stop-opacity="0"/><stop offset="1" stop-color="#838bc5" stop-opacity="0.4"/></linearGradient><linearGradient id="linear-gradient-6" x1="1490.11" y1="385.25" x2="1692.53" y2="385.25" gradientTransform="matrix(0.04, 0.73, -0.65, 0.04, 484.19, -671.38)" xlink:href="#linear-gradient-5"/><linearGradient id="linear-gradient-7" x1="374.67" y1="434.25" x2="144.92" y2="434.25" gradientTransform="translate(144.59 -60.48) rotate(17.08)" gradientUnits="userSpaceOnUse"><stop offset="0" stop-color="#333"/><stop offset="1" stop-color="#333"/></linearGradient><linearGradient id="linear-gradient-8" x1="50.48" y1="451.77" x2="422.9" y2="451.77" gradientTransform="translate(144.59 -60.48) rotate(17.08)" gradientUnits="userSpaceOnUse"><stop offset="0" stop-color="#4d4d4d"/><stop offset="1" stop-color="#333"/></linearGradient><linearGradient id="linear-gradient-9" x1="342.66" y1="319.75" x2="342.66" y2="319.75" gradientTransform="translate(144.59 -60.48) rotate(17.08)" gradientUnits="userSpaceOnUse"><stop offset="0" stop-color="#754ca1"/><stop offset="1" stop-color="#5d346d"/></linearGradient><linearGradient id="linear-gradient-10" x1="383.47" y1="339.5" x2="422.9" y2="339.5" xlink:href="#linear-gradient-7"/><linearGradient id="linear-gradient-11" x1="334.51" y1="332.43" x2="361.67" y2="332.43" xlink:href="#linear-gradient-7"/></defs><title>image2</title><g id="Layer_2" data-name="Layer 2"><g id="Layer_4" data-name="Layer 4"><g id="Layer_6" data-name="Layer 6"><path class="cls-1" d="M473.37,553.87c-61.87,98.71-244.5-27.15-255.53-92.69-4.33-25.75,13.19-33,41.23-102.76C298.51,260.31,282.2,229,310.53,205.65c51.8-42.68,203.65-18.24,255.53,92.69C611,394.5,529.75,463.92,473.37,553.87Z"/><path class="cls-2" d="M472.12,536.06c-30.06,90.33-228-28-234.9-85.21-3.09-25.5,18.82-29.07,45.44-87.85,36.78-81.23,11.41-121.47,39.77-147.06,43.93-39.63,186.7-17.87,234.9,85.21C598.66,389.55,502.93,443.47,472.12,536.06Z"/><path class="cls-3" d="M322.92,16.42C464-68,620.21,196.47,593.51,283.79,583,318.1,556,316.56,476.43,385.62,418.89,435.59,311.61,543.69,315,542.9,221.81,564.41,41.89,443.26,44.41,275.54,46.6,130.15,194.36,93.39,322.92,16.42Z"/><path class="cls-4" d="M313.42,26.11c95-93.22,275.52,171.17,248.75,245.78-11.93,33.26-42.32,24.51-113.19,80.94-97.93,78-90.43,142.75-142.84,157.26C225,532.55,55.06,420.15,57.4,264.31,59.41,130.66,216.07,121.67,313.42,26.11Z"/></g><path class="cls-5" d="M181,250.55c-13.46-.27-23.52-14.29-20.64-29.16,13.22-68.46,67.82-119.25,132.13-118h.48c11.9.24,21.33,11.32,21.07,24.76l0,1.09c-.27,13.44-10.13,24.14-22,23.91h-.48c-42.59-.84-78.8,32.57-87.91,77.76-2.32,11.51-11.17,19.84-21.61,19.64Z"/><path class="cls-6" d="M354.42,431c13.44-.71,24.49,12.55,22.7,27.59-8.22,69.24-59,123.85-123.24,127.24l-.48,0c-11.89.63-22.1-9.75-22.81-23.17l-.06-1.09c-.71-13.42,8.35-24.81,20.24-25.44l.48,0c42.54-2.25,76.23-38.19,82-83.92,1.48-11.65,9.7-20.6,20.13-21.15Z"/><path class="cls-7" d="M513.7,178.1l18.45,45.53s50.08-35.81,64.47-52.1,32.72-35.28,41.18-42.45,24.3-6.6,41.41-22.84L696.3,90s-14.83-2.6-40.7,7.82-56.48,29.93-82.16,48.62S513.7,178.1,513.7,178.1Z"/><path class="cls-8" d="M383.71,121.87s2-13.64-3.67-18.19c-3.48-2.81-5.78-1.48-7.48.39a1.51,1.51,0,0,1-2.53-.47c-1.18-3-3.42-7.75-6.27-8.82s-16.91-.29-24.33.89A2.05,2.05,0,0,0,338,98.84c1.19,1.76,2.48,4.79,3.36,10,2.06,12.33-13.59,36.29-13.59,36.29s-10.34,17.79,4,30,24.71,10,30.87,15.34S368.19,209,374.12,204a14.82,14.82,0,0,1,12.51-3.29s16.47-19.77,18-31S383.71,121.87,383.71,121.87Z"/><path class="cls-7" d="M421.85,198.81a.57.57,0,0,0,.37-.8c-1.06-2.19-4.64-9.52-6-12s14.21-10.12,15.38-16.72-2.14-12.45-5.46-16.79-18.2-17.29-30.29-23.93L384,122a.56.56,0,0,0-.51,0c-1.52.72-7.14,4.54-7.23,13.18-.12,10.28,1.37,12.43,8.2,19.34,6.4,6.48,10.45,8.82,3.81,8.24s-10.35-1.45-13.6-1.74c-3-.27-8.84.21-7,5.18s2.74,10.11,9.08,10.1,9.25-1.55,10.31-.24.54,7.49-.17,11.65c-.65,3.83-2.39,11-5.75,12.37a37.26,37.26,0,0,0-5.13,2.6l4.39,6.65a.57.57,0,0,0,.63.24Z"/><path class="cls-9" d="M308.16,248.48s-5.48,37.14,5.44,44.65l45.77-4.85c1.58,3.94,3.43,7.79,5.38,11.55,3.41,6.57,7.29,13.37,12.7,18.52a21.29,21.29,0,0,0,3.39,2.7c1.23.76,2.24.49,1.9,2.22-1,3.32-1.41,7-2.09,10.39-.38,1.89-.81,3.77-1.14,5.67s-.41,3.75-1.3,5.43a13.64,13.64,0,0,1-3.17,3.54c-2.7,2.43-5.27,5-7.84,7.59,4.32.49,8.63,1.13,12.92,1.84q5.74,1,11.44,2.14c4.15.87,8,2.59,12.13,3.74,3.89,1.1,8,1.62,11.71,3.18a45.38,45.38,0,0,1,6.61,3.35c5.08,3.2,9.35,7.61,13.06,10.9,7.85,7,12.55,12.07,12.55,12.08-.22-.29,5.07-7.42,5.4-7.93,8.42-13.09,15.93-27.34,19.9-42.47,6.65-25.34,11.18-63.43,11.18-63.43l-.52-17.35c-.12-4,3.11-7,5.82-9.56a68.51,68.51,0,0,1,6.23-5.05c3.42-2.49,7-4.77,10.63-6.94,25.68-15.34,26.91-16.28,26.91-16.28C520.46,193.48,514.42,177,514.42,177a974.88,974.88,0,0,0-159.9,50.78q-10.47,4.35-20.84,9-10.1,4.48-20.1,9.19C311.76,246.75,310,247.61,308.16,248.48Z"/><path class="cls-10" d="M392,364.5"/><path class="cls-11" d="M367.19,355.87s-36.93,18-42.55,30.42S314,420.95,314,420.95l-31,64.2s-27.62-23-58.82-36.36-59.7-25.28-59.7-25.28-23.79,9.71-20.65,13.83L181.52,464l106.62,83s12.19,11.26,34.88-13.7c22-24.24,39.68-42.89,49.2-64.38a227.28,227.28,0,0,0,12.47-36.11,239.66,239.66,0,0,0,6-33.51,255.42,255.42,0,0,0,1.41-30.58q0-2.09-.09-4.17c0-1.09.3-3.21-.15-4.18s-2.7-.94-3.68-1.14c-1.35-.27-3.3-.65-4.7-.88-4.14-.68-7.72-1.34-11.68-1.84Z"/><path class="cls-12" d="M367.19,355.87a177.45,177.45,0,0,1-14,22.91,212.84,212.84,0,0,1-41.85,45c-15.67,12.41-84.81,41.5-98.94,41.08-30.93-.91-52.07-8.74-90.83-2.84-24,3.66-48,8.24-71.81,13q-5.71,1.15-11.42,2.33c-1.48.31-4.66.33-5.91,1.23-1.74,1.25-2.36,6.35-3,8.37l-3.66,11.92L24.27,504s100.28-10.75,158.43,1.84S248.41,516,248.41,516s99.4-15,135.48-48.7,63.74-74.21,63.74-74.21S428.1,370,411.69,365.34s-18.64-5.7-31.56-7.62C370.9,356.34,367.19,355.87,367.19,355.87Z"/><path class="cls-13" d="M377.89,208.66l1.15,9.51,52.87-18.55a52.33,52.33,0,0,0-24.92-.33c-13.77,3.05-29.4,9.47-29.11,9.37Z"/><path class="cls-7" d="M313.59,293.12c-18.34,5.29-32.67,8.58-32.67,8.58s-10.82,2.27,14,13.75,37.21,16.68,44.76,22.85-73.85-22.69-73.85-22.69-27.16-9.52-19.64-23.76,61.62-40.68,61.62-40.68"/><path class="cls-7" d="M326.48,336s19.3,5.44,24.78,5.52,11.48-3.23,11.48-3.23,2-1.34-4.55-1.4A68.07,68.07,0,0,1,344,335c-.65-.2-4.89-1.54-4.37-3,.95-2.69,9.3.27,7.08-1.48,0,0-4.76-2.54-8.56-2.27s-7.3,3.6-7.55,3.94S326.48,336,326.48,336Z"/><polygon class="cls-7" points="30.87 481.54 23.82 481.78 16.51 501.66 25.85 498.92 30.87 481.54"/><polyline class="cls-7" points="162.99 424.48 158.35 421.62 145 431.61 146.32 432.99"/><path class="cls-8" d="M159.92,422.9S130.75,443.15,126.31,444s-9-1-1.49-8.86,23.19-23.21,26-24.16c3.2-1.07,6.09.83,7.79,2.51,1.55,1.52,1.39,2.16,2.13,3.91A5.28,5.28,0,0,1,159.92,422.9Z"/><path class="cls-8" d="M29.23,478.84s-11.38,38.59-14.7,42.49-10.32,5.22-7.61-6.76c2.52-11.15,4-37,5.84-39.83,2.07-3.22,6-3.59,8.66-3.32,2.44.24,2.76.92,4.65,1.94A6,6,0,0,1,29.23,478.84Z"/><path class="cls-14" d="M411.14,347.66"/><path class="cls-14" d="M403.89,235.43"/><path class="cls-13" d="M360.09,274.13a69.1,69.1,0,0,1-1.21,9l-1,5.33,1.52-.16S362,279.7,361,276.91Z"/><path class="cls-13" d="M380.84,321s7.76-6.25,9.2-9.7c0,0-1.8,7.45-4.9,11l-3.1,3.57a29.66,29.66,0,0,0,.7-3.4c0-.73-.56-.85-1.24-1.17"/><path class="cls-15" d="M378.22,345.81"/><path class="cls-13" d="M375.74,347.65s-2.39,2.9-2,4.33,2.85,2.59,6.78,4.5l3.93,1.91-17.28-2.53s7.14-6.95,7.85-7.58Z"/><path class="cls-13" d="M483.91,272.59S482,262,475.63,256.28l-6.41-5.75s4.36,3.34,15.39.07l11-3.27s-10.05,7-10.52,11.19S483.91,272.59,483.91,272.59Z"/><path class="cls-16" d="M444.16,398l3.47-4.91s-17.21-21.61-33-26.77"/><path class="cls-17" d="M393.67,360.27c-9.9-2.34-26.47-4.4-26.47-4.4l-1.48,2.9"/><path class="cls-18" d="M130.92,368.29c26.57-21.12,158.28,106.13,164.26,148.86,8.79,4.64,154.36-217.24,168.43-263.29,12-39.26-.75-63.79-.75-63.79s-55.87,15-74.53,24.08C370.51,222.78,169.21,315.92,130.92,368.29Z"/><path class="cls-19" d="M463.39,191.2c-.07,18.93,3.22,44.57-18,76.85C429.16,292.85,335,408.69,253.78,452.55c22.41,25.22,39.34,49.91,41.4,64.6,8.79,4.64,154.36-217.24,168.43-263.29C474.14,219.44,465.65,196.37,463.39,191.2Z"/><g class="cls-20"><polygon class="cls-21" points="127.24 337.31 111.81 377.19 76.28 372.2 90.03 332.08 127.24 337.31"/><polygon class="cls-22" points="76.28 372.2 58.46 355.88 72.21 315.76 90.03 332.08 76.28 372.2"/><polygon class="cls-23" points="90.03 332.08 72.21 315.76 109.42 320.99 127.24 337.31 90.03 332.08"/></g><g class="cls-20"><polygon class="cls-24" points="77.86 247.21 112.08 259.41 92 297.99 57.78 285.78 77.86 247.21"/><polygon class="cls-25" points="77.86 247.21 60.05 230.89 94.26 243.09 112.08 259.41 77.86 247.21"/><polygon class="cls-26" points="57.78 285.78 39.96 269.46 60.05 230.89 77.86 247.21 57.78 285.78"/></g><g class="cls-20"><polygon class="cls-27" points="56.26 389.9 56.73 429.24 18.29 435.08 17.82 395.75 56.26 389.9"/><polygon class="cls-28" points="18.29 435.08 0.47 418.76 0 379.43 17.82 395.75 18.29 435.08"/><polygon class="cls-29" points="17.82 395.75 0 379.43 38.44 373.58 56.26 389.9 17.82 395.75"/></g></g></g></svg>