<?xml version="1.0" encoding="utf-8"?>
<!-- Generator: Adobe Illustrator 21.1.0, SVG Export Plug-In . SVG Version: 6.00 Build 0)  -->
<svg version="1.1" id="logo" xmlns="http://www.w3.org/2000/svg" xmlns:xlink="http://www.w3.org/1999/xlink" x="0px" y="0px"
	 viewBox="0 0 510 220" style="enable-background:new 0 0 510 220;" xml:space="preserve">
<style type="text/css">
	.st0{enable-background:new    ;}
	.st1{fill:#312349;}
	.st2{fill:#FFB400;}
</style>
<g id="jakarta" class="st0">
	<path class="st1" d="M173.7,134c-1.9,3.4-4.6,6.1-8,8c-3.4,1.9-7.4,2.8-11.8,2.8c-1.4,0-2.6-0.5-3.4-1.4c-0.9-0.9-1.3-2.1-1.3-3.5
		c0-1.4,0.4-2.5,1.3-3.5c0.9-0.9,2-1.4,3.4-1.4c3.8,0,6.9-1.2,9.3-3.5c2.4-2.4,3.6-5.4,3.6-9.1V75.7c0-1.5,0.5-2.6,1.4-3.5
		c0.9-0.9,2.1-1.3,3.5-1.3c1.5,0,2.6,0.4,3.5,1.3c0.9,0.9,1.3,2.1,1.3,3.5v46.8C176.6,126.7,175.6,130.6,173.7,134z M176.1,51.8
		c1.2,1.2,1.9,2.7,1.9,4.4s-0.6,3.2-1.9,4.4c-1.2,1.2-2.7,1.8-4.5,1.8s-3.2-0.6-4.5-1.8c-1.2-1.2-1.9-2.7-1.9-4.4s0.6-3.2,1.9-4.4
		c1.2-1.2,2.7-1.8,4.5-1.8S174.9,50.5,176.1,51.8z"/>
	<path class="st1" d="M228,73.9c4,2.3,7.1,5.5,9.5,9.5c2.3,4,3.5,8.5,3.5,13.4v21.1c0,1.4-0.5,2.5-1.4,3.5c-0.9,0.9-2.1,1.4-3.5,1.4
		c-1.4,0-2.6-0.5-3.5-1.4c-0.9-0.9-1.4-2.1-1.4-3.5v-3.5c-2.2,2.7-4.9,4.8-8.1,6.3c-3.2,1.5-6.6,2.3-10.3,2.3
		c-4.6,0-8.8-1.1-12.5-3.4c-3.7-2.3-6.7-5.4-8.8-9.4c-2.1-4-3.2-8.5-3.2-13.4s1.1-9.4,3.4-13.4c2.3-4,5.5-7.2,9.5-9.5
		c4.1-2.3,8.5-3.5,13.5-3.5C219.6,70.5,224.1,71.6,228,73.9z M223.4,112.2c2.6-1.5,4.6-3.7,6.1-6.3c1.5-2.7,2.2-5.7,2.2-9
		c0-3.3-0.7-6.4-2.2-9.1c-1.5-2.7-3.5-4.8-6.1-6.4c-2.6-1.5-5.5-2.3-8.7-2.3c-3.2,0-6.1,0.8-8.7,2.3c-2.6,1.5-4.6,3.7-6.1,6.4
		c-1.5,2.7-2.2,5.7-2.2,9.1c0,3.3,0.7,6.4,2.2,9c1.5,2.7,3.5,4.8,6.1,6.3c2.6,1.5,5.5,2.3,8.7,2.3
		C217.9,114.5,220.8,113.7,223.4,112.2z"/>
	<path class="st1" d="M296.2,118.7c0,1.4-0.6,2.6-1.7,3.5c-1,0.8-2,1.1-3.1,1.1c-1.4,0-2.6-0.6-3.4-1.7l-18.2-22.2l-4.8,4.2V118
		c0,1.4-0.4,2.5-1.3,3.4c-0.9,0.9-2,1.3-3.4,1.3s-2.5-0.4-3.4-1.3c-0.9-0.9-1.3-2-1.3-3.4V53.3c0-1.4,0.4-2.5,1.3-3.4s2-1.3,3.4-1.3
		s2.5,0.4,3.4,1.3s1.3,2,1.3,3.4v38.5l23.3-20.5c0.8-0.8,1.8-1.2,3-1.2c1.3,0,2.4,0.5,3.3,1.5c0.8,0.8,1.2,1.8,1.2,2.9
		c0,1.3-0.5,2.4-1.5,3.2l-17.6,15.5l18.6,22.5C295.8,116.6,296.2,117.5,296.2,118.7z"/>
	<path class="st1" d="M342.4,73.9c4,2.3,7.1,5.5,9.5,9.5c2.3,4,3.5,8.5,3.5,13.4v21.1c0,1.4-0.5,2.5-1.4,3.5
		c-0.9,0.9-2.1,1.4-3.5,1.4s-2.6-0.5-3.5-1.4c-0.9-0.9-1.4-2.1-1.4-3.5v-3.5c-2.2,2.7-4.9,4.8-8.1,6.3c-3.2,1.5-6.6,2.3-10.3,2.3
		c-4.6,0-8.8-1.1-12.5-3.4s-6.7-5.4-8.8-9.4c-2.1-4-3.2-8.5-3.2-13.4s1.1-9.4,3.4-13.4c2.3-4,5.5-7.2,9.5-9.5
		c4.1-2.3,8.5-3.5,13.5-3.5C333.9,70.5,338.4,71.6,342.4,73.9z M337.7,112.2c2.6-1.5,4.6-3.7,6.1-6.3c1.5-2.7,2.2-5.7,2.2-9
		c0-3.3-0.7-6.4-2.2-9.1c-1.5-2.7-3.5-4.8-6.1-6.4c-2.6-1.5-5.5-2.3-8.7-2.3c-3.2,0-6.1,0.8-8.7,2.3c-2.6,1.5-4.6,3.7-6.1,6.4
		c-1.5,2.7-2.2,5.7-2.2,9.1c0,3.3,0.7,6.4,2.2,9c1.5,2.7,3.5,4.8,6.1,6.3c2.6,1.5,5.5,2.3,8.7,2.3
		C332.2,114.5,335.1,113.7,337.7,112.2z"/>
	<path class="st1" d="M403.5,71.8c1.9,1,2.9,2.3,2.9,3.8c0,0.4,0,0.8-0.1,0.9c-0.6,2-1.9,3-3.8,3c-0.3,0-0.8-0.1-1.4-0.2
		c-2.6-0.4-4.6-0.7-6.2-0.7c-4.6,0-8.3,1-11.1,3.1c-2.8,2.1-4.2,4.9-4.2,8.4v27.6c0,1.5-0.4,2.7-1.2,3.5c-0.8,0.8-2,1.2-3.6,1.2
		c-1.5,0-2.7-0.4-3.5-1.2c-0.8-0.8-1.2-2-1.2-3.6V75.6c0-1.5,0.4-2.7,1.2-3.5c0.8-0.8,2-1.2,3.5-1.2c3.2,0,4.8,1.6,4.8,4.7v1.8
		c1.9-2.2,4.3-3.9,7.1-5.2c2.8-1.3,5.8-1.9,9-1.9C399,70.3,401.6,70.8,403.5,71.8z"/>
	<path class="st1" d="M441.7,114.5c0.8,0.9,1.2,2,1.2,3.4c0,1.4-0.5,2.5-1.6,3.4c-1.1,0.9-2.4,1.3-4.1,1.3h-1.7
		c-3.1,0-6-0.8-8.6-2.4c-2.6-1.6-4.6-3.8-6.1-6.6c-1.5-2.8-2.2-5.9-2.2-9.4V80.9h-4.4c-1.3,0-2.4-0.4-3.3-1.1
		c-0.8-0.8-1.2-1.7-1.2-2.8c0-1.3,0.4-2.3,1.2-3c0.8-0.8,1.9-1.1,3.3-1.1h4.4V59.1c0-1.4,0.4-2.5,1.3-3.4c0.9-0.9,2-1.3,3.4-1.3
		c1.4,0,2.6,0.4,3.4,1.3c0.9,0.9,1.3,2,1.3,3.4v13.6h8.1c1.3,0,2.4,0.4,3.3,1.1c0.8,0.8,1.2,1.8,1.2,3c0,1.1-0.4,2.1-1.2,2.8
		c-0.8,0.8-1.9,1.1-3.3,1.1h-8.1v23.4c0,2.5,0.7,4.6,2.1,6.3c1.4,1.7,3.1,2.6,5.2,2.6h3.3C439.9,113.2,440.9,113.6,441.7,114.5z"/>
	<path class="st1" d="M492,73.9c4,2.3,7.1,5.5,9.5,9.5c2.3,4,3.5,8.5,3.5,13.4v21.1c0,1.4-0.5,2.5-1.4,3.5c-0.9,0.9-2.1,1.4-3.5,1.4
		s-2.6-0.5-3.5-1.4c-0.9-0.9-1.4-2.1-1.4-3.5v-3.5c-2.2,2.7-4.9,4.8-8.1,6.3c-3.2,1.5-6.6,2.3-10.3,2.3c-4.6,0-8.8-1.1-12.5-3.4
		c-3.7-2.3-6.7-5.4-8.8-9.4c-2.1-4-3.2-8.5-3.2-13.4s1.1-9.4,3.4-13.4c2.3-4,5.5-7.2,9.5-9.5c4.1-2.3,8.5-3.5,13.5-3.5
		C483.5,70.5,488,71.6,492,73.9z M487.3,112.2c2.6-1.5,4.6-3.7,6.1-6.3c1.5-2.7,2.2-5.7,2.2-9c0-3.3-0.7-6.4-2.2-9.1
		c-1.5-2.7-3.5-4.8-6.1-6.4c-2.6-1.5-5.5-2.3-8.7-2.3s-6.1,0.8-8.7,2.3c-2.6,1.5-4.6,3.7-6.1,6.4c-1.5,2.7-2.2,5.7-2.2,9.1
		c0,3.3,0.7,6.4,2.2,9c1.5,2.7,3.5,4.8,6.1,6.3c2.6,1.5,5.5,2.3,8.7,2.3S484.7,113.7,487.3,112.2z"/>
</g>
<g id="code" class="st0">
	<path class="st2" d="M193.4,176.4c0.6,0.7,1,1.5,1,2.5c0,1.4-0.7,2.6-2.1,3.5c-0.6,0.4-1.4,0.7-2.2,0.7c-1.5,0-2.7-0.6-3.7-1.7
		c-1.6-1.7-3.3-2.9-5.2-3.7c-1.9-0.8-4-1.2-6.5-1.2c-4.9,0-8.9,1.6-12,4.9c-3.1,3.3-4.6,7.6-4.6,12.9c0,3.4,0.7,6.5,2.2,9.1
		c1.4,2.7,3.4,4.8,6,6.3c2.6,1.5,5.5,2.3,8.9,2.3c4.3,0,7.9-1.1,10.5-3.3c1.2-0.9,2.4-1.3,3.5-1.3c0.9,0,1.7,0.3,2.5,0.9
		c1.2,1,1.8,2.1,1.8,3.4c0,0.9-0.4,1.8-1.1,2.6c-4.6,4.2-10.3,6.3-17.2,6.3c-5,0-9.6-1.1-13.6-3.4c-4-2.3-7.2-5.4-9.4-9.4
		c-2.3-4-3.4-8.5-3.4-13.4c0-5,1.1-9.6,3.3-13.6c2.2-4,5.3-7.1,9.2-9.4c4-2.2,8.4-3.4,13.4-3.4C182.1,167.8,188.4,170.7,193.4,176.4
		z"/>
	<path class="st2" d="M246.2,171.2c4,2.2,7.1,5.3,9.4,9.3c2.3,4,3.4,8.5,3.4,13.6c0,5.1-1.1,9.6-3.4,13.5c-2.2,4-5.3,7.1-9.3,9.3
		c-4,2.2-8.5,3.4-13.6,3.4c-5.1,0-9.7-1.1-13.7-3.4c-4-2.2-7.2-5.3-9.4-9.3c-2.2-4-3.4-8.5-3.4-13.5c0-5.1,1.1-9.7,3.4-13.6
		c2.2-4,5.4-7.1,9.4-9.3c4-2.2,8.6-3.4,13.7-3.4C237.7,167.8,242.2,169,246.2,171.2z M223.9,178.6c-2.6,1.5-4.6,3.6-6.1,6.3
		c-1.5,2.7-2.2,5.8-2.2,9.2s0.7,6.5,2.2,9.1c1.5,2.7,3.5,4.8,6.1,6.3s5.5,2.3,8.8,2.3s6.2-0.8,8.8-2.3s4.6-3.6,6-6.3
		c1.4-2.7,2.2-5.7,2.2-9.1s-0.7-6.5-2.2-9.2c-1.4-2.7-3.4-4.8-6-6.3c-2.6-1.5-5.5-2.3-8.8-2.3S226.4,177.1,223.9,178.6z"/>
	<path class="st2" d="M322.3,147.4c0.9,0.9,1.3,2.1,1.3,3.5v43.2c0,4.9-1.2,9.4-3.5,13.4c-2.3,4-5.5,7.2-9.5,9.5
		c-4,2.3-8.4,3.5-13.4,3.5s-9.4-1.2-13.5-3.5c-4.1-2.3-7.2-5.5-9.5-9.5c-2.3-4-3.4-8.5-3.4-13.4s1.1-9.4,3.2-13.4
		c2.1-4,5.1-7.1,8.8-9.4c3.7-2.3,7.9-3.4,12.5-3.4c3.7,0,7.1,0.8,10.3,2.3c3.2,1.5,5.9,3.6,8.1,6.3v-25.6c0-1.5,0.5-2.6,1.4-3.5
		c0.9-0.9,2.1-1.3,3.5-1.3C320.2,146.1,321.4,146.5,322.3,147.4z M305.9,209.5c2.6-1.5,4.6-3.7,6.1-6.4c1.5-2.7,2.2-5.7,2.2-9.1
		c0-3.3-0.7-6.4-2.2-9c-1.5-2.7-3.5-4.8-6.1-6.3c-2.6-1.5-5.5-2.3-8.7-2.3s-6.1,0.8-8.7,2.3c-2.6,1.5-4.6,3.7-6.1,6.3
		c-1.5,2.7-2.2,5.7-2.2,9c0,3.3,0.8,6.4,2.2,9.1c1.5,2.7,3.5,4.8,6.1,6.4c2.6,1.5,5.5,2.3,8.7,2.3S303.3,211.1,305.9,209.5z"/>
	<path class="st2" d="M386.6,196.3c-0.8,0.8-1.9,1.2-3.2,1.2h-36.4c0.7,4.4,2.7,8,6.1,10.7c3.4,2.7,7.5,4.1,12.3,4.1
		c1.9,0,3.9-0.3,6-1c2.1-0.7,3.8-1.5,5.1-2.6c0.9-0.7,1.9-1,3.2-1c1.2,0,2.2,0.3,2.9,0.9c1.1,0.9,1.7,2,1.7,3.2
		c0,1.1-0.5,2.1-1.5,2.8c-2.2,1.7-4.9,3.1-8.1,4.2c-3.2,1.1-6.3,1.6-9.2,1.6c-5.2,0-9.9-1.1-14.1-3.4c-4.2-2.2-7.4-5.3-9.7-9.3
		c-2.3-4-3.5-8.5-3.5-13.5c0-5,1.1-9.6,3.3-13.6s5.3-7.1,9.2-9.4c3.9-2.2,8.4-3.4,13.4-3.4c4.9,0,9.2,1.1,12.7,3.2
		c3.6,2.1,6.3,5.1,8.2,9c1.9,3.9,2.9,8.3,2.9,13.3C387.8,194.5,387.4,195.5,386.6,196.3z M352.7,179.8c-2.9,2.5-4.7,5.9-5.5,10.1
		H379c-0.6-4.2-2.2-7.6-4.8-10.1c-2.6-2.5-6-3.8-10.2-3.8C359.3,176,355.6,177.2,352.7,179.8z"/>
</g>
<g id="_" class="st0">
	<path class="st1" d="M15,214.8c0,1.4-0.5,2.5-1.4,3.4c-0.9,0.9-2.1,1.3-3.5,1.3c-1.4,0-2.6-0.4-3.5-1.3c-0.9-0.9-1.4-2-1.4-3.4
		c0-10.3,5.2-15.4,15.6-15.4h22.3c3.9,0,5.8-1.9,5.8-5.7c0-1.4,0.4-2.5,1.3-3.5c0.9-0.9,2-1.4,3.4-1.4c1.4,0,2.6,0.5,3.5,1.4
		c0.9,0.9,1.4,2.1,1.4,3.5c0,3.8,1.9,5.7,5.8,5.7h22.3c10.4,0,15.6,5.1,15.6,15.4c0,1.4-0.5,2.5-1.4,3.4c-1,0.9-2.1,1.3-3.5,1.3
		c-1.4,0-2.6-0.4-3.4-1.3c-0.9-0.9-1.3-2-1.3-3.4c0-3.9-1.9-5.8-5.8-5.8H64.5c-4.4,0-8-1-10.7-3c-2.6,2-6.2,3-10.6,3H20.8
		C16.9,209,15,211,15,214.8z"/>
</g>
<g id="_2" class="st0">
	<path class="st1" d="M40.5,88.9c-0.9-0.9-1.4-2.1-1.4-3.5c0-1.5,0.5-2.6,1.4-3.6c0.9-0.9,2.1-1.4,3.6-1.4h14.6
		c1.4,0,2.6,0.5,3.5,1.4c1,0.9,1.4,2.1,1.4,3.6v86.3c0,1.5-0.5,2.7-1.4,3.6c-1,0.9-2.1,1.4-3.5,1.4H44.1c-1.4,0-2.6-0.5-3.5-1.4
		c-1-0.9-1.4-2.1-1.4-3.6c0-1.4,0.5-2.5,1.4-3.5c1-0.9,2.1-1.4,3.5-1.4h9.6V90.3h-9.6C42.6,90.3,41.4,89.8,40.5,88.9z"/>
</g>
<g id="_3" class="st0">
	<path class="st1" d="M32.3,45.5c-1-0.9-1.4-2.1-1.4-3.4c0-1.3,0.5-2.5,1.4-3.4c1-0.9,2.1-1.4,3.4-1.4h32c1.4,0,2.6,0.5,3.4,1.4
		c0.9,0.9,1.3,2.1,1.3,3.5c0,1.4-0.4,2.5-1.3,3.5c-0.9,0.9-2,1.4-3.4,1.4h-32C34.4,46.9,33.2,46.4,32.3,45.5z M32.3,66.6
		c-1-0.9-1.4-2.1-1.4-3.4c0-1.4,0.5-2.5,1.4-3.5c1-0.9,2.1-1.4,3.4-1.4h32c1.4,0,2.6,0.5,3.4,1.4c0.9,0.9,1.3,2.1,1.3,3.5
		c0,1.4-0.4,2.5-1.3,3.5c-0.9,0.9-2,1.4-3.4,1.4h-32C34.4,68,33.2,67.5,32.3,66.6z"/>
</g>
<g id="_4" class="st0">
	<path class="st2" d="M46.8,26.3c-1.3-1.6-1.9-3.9-1.9-6.8c0-2.6,0.6-5.4,1.8-8.3c1.2-3,2.6-5.4,4.4-7.4s3.3-3,4.8-3
		c0.8,0,1.4,0.2,1.8,0.7c0.4,0.5,0.6,1.1,0.6,1.8c0,0.8-0.2,1.5-0.5,2.1c-0.3,0.7-0.8,1.4-1.5,2.3c-0.8,1.1-1.4,2.1-1.8,2.9
		c-0.4,0.8-0.6,1.7-0.6,2.8c0,0.9,0.2,1.8,0.6,2.4c0.4,0.7,1,1.4,1.8,2.1c0.8,0.8,1.5,1.6,1.9,2.3c0.4,0.7,0.7,1.6,0.7,2.7
		c0,1.7-0.6,3.1-1.8,4.3c-1.2,1.1-2.7,1.7-4.6,1.7C49.9,28.8,48.1,27.9,46.8,26.3z"/>
</g>
</svg>
