<?xml version="1.0" encoding="utf-8"?>
<!-- Generator: Adobe Illustrator 21.1.0, SVG Export Plug-In . SVG Version: 6.00 Build 0)  -->
<svg version="1.1" id="Layer_1" xmlns="http://www.w3.org/2000/svg" xmlns:xlink="http://www.w3.org/1999/xlink" x="0px" y="0px"
	 viewBox="0 0 761.8 761.8" style="enable-background:new 0 0 761.8 761.8;" xml:space="preserve">
<style type="text/css">
	.st0{fill:url(#SVGID_1_);}
	.st1{fill:url(#SVGID_2_);}
	.st2{fill:url(#SVGID_3_);}
	.st3{fill:url(#SVGID_4_);}
	.st4{fill:#EAEAEA;}
	.st5{fill:#F7F7F7;}
	.st6{fill:#B2B2B2;}
	.st7{fill:#C1C1C1;}
	.st8{fill:#DBDBDD;}
	.st9{fill:#EFEFED;}
	.st10{fill:#ADADAD;}
	.st11{fill:#CE9A19;}
	.st12{fill:#E8AA1F;}
	.st13{fill:url(#SVGID_5_);}
	.st14{fill:url(#SVGID_6_);}
	.st15{fill:url(#SVGID_7_);}
	.st16{opacity:0.4;}
	.st17{fill:#553991;}
	.st18{fill:#8B7CC1;}
	.st19{fill:#F8C90A;}
	.st20{fill:#08B18F;}
	.st21{fill:#F3065F;}
	.st22{fill:#F8A98A;}
	.st23{fill:#27333F;}
	.st24{fill:none;stroke:#42296B;stroke-miterlimit:10;}
	.st25{fill:url(#SVGID_8_);}
	.st26{fill:url(#SVGID_9_);}
	.st27{fill:#42296B;}
	.st28{opacity:0.34;fill:none;stroke:#42296B;stroke-miterlimit:10;enable-background:new    ;}
	.st29{fill:url(#SVGID_10_);}
	.st30{fill:url(#SVGID_11_);}
	.st31{fill:url(#SVGID_12_);}
	.st32{fill:#D23D54;}
	.st33{fill:#BA2A4C;}
	.st34{opacity:0.7;fill:url(#SVGID_13_);enable-background:new    ;}
	.st35{opacity:0.7;fill:url(#SVGID_14_);enable-background:new    ;}
	.st36{fill:#F9A641;}
	.st37{fill:#F37B32;}
	.st38{fill:url(#SVGID_15_);}
	.st39{fill:#ED8F14;}
	.st40{fill:#E8B628;}
	.st41{fill:#F28D6C;}
	.st42{fill:#333333;}
	.st43{fill:#FFFFFF;}
	.st44{fill:#F6935F;}
	.st45{fill:url(#SVGID_16_);}
	.st46{fill:url(#SVGID_17_);}
	.st47{fill:url(#SVGID_18_);}
	.st48{fill:#F59370;}
	.st49{fill:#1C2022;}
	.st50{fill:#604EA0;}
	.st51{fill:#7C64BB;}
	.st52{opacity:0.68;fill:#F7F7F7;enable-background:new    ;}
	.st53{opacity:0.7;fill:#F7F7F7;enable-background:new    ;}
</style>
<title>main_image_1</title>
<g>
	<g id="Layer_2">
		<g id="Layer_15">
			
				<linearGradient id="SVGID_1_" gradientUnits="userSpaceOnUse" x1="2491.3687" y1="-5015.083" x2="2143.6836" y2="-5015.083" gradientTransform="matrix(0.42 0.91 0.91 -0.42 4046.9487 -3751.5137)">
				<stop  offset="0" style="stop-color:#FFFFFF;stop-opacity:0"/>
				<stop  offset="1" style="stop-color:#FF9900"/>
			</linearGradient>
			<path class="st0" d="M527.8,614c-53.9,86-213-23.7-222.6-80.7c-3.8-22.4,11.5-28.8,35.9-89.5c34.4-85.5,20.2-112.7,44.8-133.1
				c45.1-37.2,177.4-15.9,222.6,80.7C647.7,475.2,576.9,535.7,527.8,614z"/>
			
				<linearGradient id="SVGID_2_" gradientUnits="userSpaceOnUse" x1="2478.8049" y1="-5009.4468" x2="2155.9556" y2="-5009.4468" gradientTransform="matrix(0.42 0.91 0.91 -0.42 4046.9487 -3751.5137)">
				<stop  offset="0" style="stop-color:#FFFFFF;stop-opacity:0"/>
				<stop  offset="1" style="stop-color:#FFEA00"/>
			</linearGradient>
			<path class="st1" d="M526.7,598.5c-26.2,78.7-198.6-24.4-204.6-74.2c-2.7-22.2,16.4-25.3,39.6-76.5c32-70.8,9.9-105.8,34.6-128.1
				c38.3-34.5,162.6-15.6,204.6,74.2C636.9,470.9,553.5,517.8,526.7,598.5z"/>
			
				<linearGradient id="SVGID_3_" gradientUnits="userSpaceOnUse" x1="296.5052" y1="-1228.6309" x2="88.5555" y2="-846.995" gradientTransform="matrix(0.96 3.000000e-02 3.000000e-02 -1 196.0045 -593.719)">
				<stop  offset="0" style="stop-color:#FFFFFF;stop-opacity:0"/>
				<stop  offset="1" style="stop-color:#8A3479"/>
			</linearGradient>
			<path class="st2" d="M554.5,454.2c64.7,112.3-145.7,231.9-214.1,209.7c-26.9-8.7-25.3-30-78.7-93.6
				c-30.7-36.4-89.9-98.2-112.6-120.6c-7.1-7-11.1-16.7-10.9-26.7c1.3-76.3,93.9-195.3,215.8-191.4
				C468.5,235.1,495.5,352,554.5,454.2z"/>
			
				<linearGradient id="SVGID_4_" gradientUnits="userSpaceOnUse" x1="411.1318" y1="-1089.3191" x2="6.632" y2="-967.6653" gradientTransform="matrix(0.96 3.000000e-02 3.000000e-02 -1 196.0045 -593.719)">
				<stop  offset="0" style="stop-color:#FFFFFF;stop-opacity:0"/>
				<stop  offset="1" style="stop-color:#8A3499"/>
			</linearGradient>
			<path class="st3" d="M547,446.6c72.2,76-138.4,214.8-196.8,192.8c-26-9.8-18.8-33.7-62.3-90.2c-60.2-78.2-111.3-73.1-122-114.6
				C149.3,370.4,240,238,362.7,241.8C467.9,245.2,473,368.7,547,446.6z"/>
			<polygon class="st4" points="460.6,677.9 173.8,550.8 306.4,451.7 561.4,541.4 			"/>
			<polygon class="st5" points="403.4,601.9 286,553.5 323.7,103.1 366.5,109.2 			"/>
			<polygon class="st6" points="471.6,540.2 403.4,601.9 366.5,109.2 394,94.9 			"/>
			<polygon class="st4" points="448.9,752.4 198,626.7 187.2,588.9 448.8,707.4 			"/>
			<polygon class="st6" points="542.9,623.3 448.9,752.4 448.8,704.9 547.9,572 			"/>
			<polygon class="st5" points="459,712 177.6,584.6 173.8,550.8 460.6,677.9 			"/>
			<polygon class="st7" points="558.1,574.6 459,712 460.6,677.9 561.4,541.4 			"/>
			<polygon class="st8" points="373.7,124.3 302.5,114.2 337.2,89.6 409.3,96.4 			"/>
			<polygon class="st9" points="374.7,134.8 302.5,123.9 302.5,114.2 373.7,124.3 			"/>
			<polygon class="st10" points="410.1,103.7 374.7,134.8 373.7,124.3 409.3,96.4 			"/>
			<polygon class="st11" points="366.5,118.9 324.2,111.9 348.7,14.5 			"/>
			<polygon class="st12" points="389.9,101 366.5,118.9 348.4,15 367.2,9.9 			"/>
			
				<linearGradient id="SVGID_5_" gradientUnits="userSpaceOnUse" x1="2308.4592" y1="1318.788" x2="2059.8906" y2="1318.788" gradientTransform="matrix(-0.9193 -0.442 -0.442 0.9193 2828.7031 130.1242)">
				<stop  offset="0" style="stop-color:#FFFFFF;stop-opacity:0"/>
				<stop  offset="1" style="stop-color:#C5D82D;stop-opacity:0.4"/>
			</linearGradient>
			<polygon class="st13" points="157.7,253.1 377.7,379.7 350.5,426.7 94.8,393.6 			"/>
			
				<linearGradient id="SVGID_6_" gradientUnits="userSpaceOnUse" x1="785.1551" y1="101.3516" x2="536.65" y2="101.3516" gradientTransform="matrix(0.876 -0.4824 -0.4824 -0.876 -23.5823 685.8222)">
				<stop  offset="0" style="stop-color:#FFFFFF;stop-opacity:0"/>
				<stop  offset="1" style="stop-color:#C5D82D;stop-opacity:0.4"/>
			</linearGradient>
			<polygon class="st14" points="651.8,284.4 425.2,388.1 403.1,339.7 575.3,154.1 			"/>
			
				<linearGradient id="SVGID_7_" gradientUnits="userSpaceOnUse" x1="2224.8081" y1="1051.2283" x2="1933.199" y2="1051.2283" gradientTransform="matrix(-0.36 -0.95 -0.95 0.36 2112.9216 1819.865)">
				<stop  offset="0" style="stop-color:#FFFFFF;stop-opacity:0"/>
				<stop  offset="1" style="stop-color:#C5D82D;stop-opacity:0.4"/>
			</linearGradient>
			<polygon class="st15" points="435,68.6 411.4,363.2 359.4,378.6 201.1,125.5 			"/>
			<g class="st16">
				<path class="st17" d="M554.4,517.7l-181.8-54.9c-2.2-0.7-3.7-2.7-3.7-5l-0.1-132.1c0-2.9,2.3-5.3,5.2-5.3c0.3,0,0.7,0,1,0.1
					l181.3,36.3c2.4,0.5,4.2,2.6,4.2,5.1l0.7,150.7c0,2.9-2.3,5.3-5.2,5.3C555.4,517.9,554.9,517.8,554.4,517.7z"/>
			</g>
			<path class="st5" d="M531.5,530.7l-181.8-54.9c-2.2-0.7-3.7-2.7-3.7-5l-0.2-132.1c0-2.9,2.3-5.3,5.2-5.3c0.3,0,0.7,0,1,0.1
				l181.3,36.3c2.4,0.5,4.2,2.6,4.2,5.1l0.7,150.7c0,2.9-2.3,5.3-5.2,5.3C532.5,531,532,530.9,531.5,530.7z"/>
			<path class="st18" d="M537.7,399.9L345.8,358v-22.5c0-1.4,1.2-2.6,2.6-2.6c0.2,0,0.3,0,0.5,0.1l186.5,37.4
				c1.2,0.2,2.1,1.3,2.1,2.6L537.7,399.9z"/>
			<path class="st19" d="M373.7,351.9c-0.4,2.2-2.4,3.6-4.5,3.3c-2.1-0.4-3.6-2.3-3.3-4.5c0.3-2.1,1.8-3.7,4.5-3.3
				C372.6,347.8,374.1,349.8,373.7,351.9z"/>
			<ellipse transform="matrix(0.1544 -0.988 0.988 0.1544 -27.406 677.4392)" class="st20" cx="382.1" cy="354.7" rx="4" ry="4"/>
			<ellipse transform="matrix(0.1544 -0.988 0.988 0.1544 -41.4999 647.5222)" class="st21" cx="357.5" cy="348" rx="4" ry="4"/>
			<path class="st22" d="M322.1,298.3l5.6,9.9c0,0,10.4-9.8,13.2-13.9s6.4-9.1,8.1-11c1.7-1.9,5.4-2.3,8.8-6.5l3.4-4.3
				c0,0-3.5-0.1-9.1,3c-5.6,3.2-12,8.6-17.3,13.7C329.5,294.3,322.1,298.3,322.1,298.3z"/>
			<path class="st23" d="M290.6,289.4c0,0,0-3.2-1.4-4.1c-0.9-0.5-1.4-0.2-1.7,0.3c-0.1,0.2-0.3,0.2-0.5,0.1l-0.1-0.1
				c-0.4-0.7-1-1.7-1.7-1.8c-0.7-0.2-3.9,0.5-5.6,1c-0.3,0.1-0.4,0.3-0.3,0.6c0,0.1,0.1,0.1,0.1,0.2c0.3,0.4,0.7,1,1.1,2.2
				c0.9,2.8-2,8.7-2,8.7s-1.8,4.4,1.8,6.8s6,1.5,7.6,2.6s1.9,4.1,3.1,2.8c0.7-0.8,1.7-1.2,2.8-1.1c0,0,3.2-5,3.2-7.7
				C296.8,297.1,290.6,289.4,290.6,289.4z"/>
			<path class="st22" d="M301.7,305.9c0.1,0,0.1-0.1,0.1-0.2l0,0c-0.3-0.5-1.4-2-1.8-2.6c-0.4-0.5,2.9-2.8,3-4.3s-0.9-2.8-1.8-3.7
				c-0.9-0.9-4.7-3.4-7.7-4.6l-2.9-1.1h-0.1c-0.3,0.2-1.5,1.3-1.3,3.2c0.3,2.4,0.7,2.8,2.5,4.2c1.7,1.3,2.7,1.7,1.1,1.8
				c-1.5,0.1-2.4,0-3.2,0c-0.7,0-2,0.3-1.4,1.4s0.9,2.2,2.4,2s2.1-0.6,2.4-0.4c0.3,0.3,0.4,1.7,0.3,2.7c0,0.9-0.2,2.6-0.9,3
				c-0.4,0.2-0.8,0.5-1.1,0.8l1.2,1.4c0,0,0.1,0.1,0.2,0L301.7,305.9z"/>
			<path class="st17" d="M277.1,320.8c0,0-0.1,8.7,2.6,10.1l10.4-2.5c0.5,0.9,1,1.7,1.6,2.5c1,1.4,2.1,2.8,3.5,3.9
				c0.3,0.2,0.6,0.4,0.9,0.5s0.5,0,0.5,0.5c-0.1,0.8-0.1,1.6-0.2,2.4c0,0.4-0.1,0.9-0.1,1.3s0,0.9-0.1,1.3c-0.2,0.3-0.4,0.6-0.6,0.9
				c-0.5,0.6-1.1,1.3-1.6,2c1,0,2,0,3,0c0.9,0,1.8,0.1,2.7,0.1c1,0.1,1.9,0.3,2.9,0.5c0.9,0.1,1.9,0.1,2.8,0.4
				c0.6,0.1,1.1,0.3,1.6,0.6c1.3,0.6,2.4,1.5,3.3,2.1c2,1.4,3.2,2.4,3.2,2.4c-0.1-0.1,0.9-1.9,1-2c1.5-3.3,2.8-6.8,3.3-10.4
				c0.7-6,0.6-14.9,0.6-14.9l-0.7-4c-0.2-0.9,0.5-1.7,1-2.4c0.4-0.5,0.8-0.9,1.3-1.4c0.7-0.7,1.5-1.3,2.2-1.9
				c5.4-4.3,5.7-4.6,5.7-4.6c-3.9-6.6-5.8-10.2-5.8-10.2c-12.2,4.5-23.9,10.1-35.1,16.6c-1.5,0.9-3,1.8-4.5,2.7
				c-1.5,0.9-2.9,1.8-4.3,2.7C277.9,320.3,277.5,320.6,277.1,320.8z"/>
			<path class="st24" d="M299.9,344.8"/>
			
				<linearGradient id="SVGID_8_" gradientUnits="userSpaceOnUse" x1="508.8412" y1="-2747.9897" x2="455.6509" y2="-2747.9897" gradientTransform="matrix(0.9865 0.1637 0.1637 -0.9865 246.9406 -2426.0308)">
				<stop  offset="0" style="stop-color:#333333"/>
				<stop  offset="1" style="stop-color:#333333"/>
			</linearGradient>
			<path class="st25" d="M294,343.6c0,0-7.9,5.3-8.8,8.3c-0.9,3-1.4,8.3-1.4,8.3l-5.1,15.7c0,0-7-4.4-14.6-6.5s-14.5-4-14.5-4
				s-5.2,3-4.3,3.8l9.5,4.9l27,15.7c0,0,3.1,2.2,7.6-4.2c4.3-6.2,7.8-11.1,9.3-16.3c0.8-2.8,1.4-5.7,1.7-8.7
				c0.3-2.6,0.4-5.2,0.3-7.9c-0.1-2.4-0.3-4.7-0.6-7.1c0-0.3-0.1-0.6-0.1-1c0-0.2,0-0.7-0.2-1c-0.1-0.2-0.6-0.1-0.9-0.1
				s-0.8,0-1.1-0.1c-1,0-1.8-0.1-2.7-0.1L294,343.6z"/>
			
				<linearGradient id="SVGID_9_" gradientUnits="userSpaceOnUse" x1="433.7981" y1="-2752.1653" x2="519.9818" y2="-2752.1653" gradientTransform="matrix(0.9865 0.1637 0.1637 -0.9865 246.9406 -2426.0308)">
				<stop  offset="0" style="stop-color:#4D4D4D"/>
				<stop  offset="1" style="stop-color:#333333"/>
			</linearGradient>
			<path class="st26" d="M294,343.6c-0.7,2-1.5,3.9-2.5,5.7c-2.2,4.2-4.9,8.2-8.2,11.6c-3.2,3.3-18.2,12.1-21.4,12.5
				c-7.1,0.7-12.2-0.4-20.9,2.2c-5.4,1.6-10.7,3.4-16.1,5.2c-0.9,0.3-1.7,0.6-2.5,0.9c-0.3,0.1-1.1,0.2-1.3,0.5
				c-0.4,0.3-0.3,1.5-0.4,2l-0.5,2.8l-0.2,1.2c0,0,22.7-5.6,36.4-4.5s15.4,0.3,15.4,0.3s22.3-6.5,29.6-15.4c7.2-8.8,12.3-19,12.3-19
				s-5.2-4.7-9.1-5.3c-3.9-0.6-4.5-0.7-7.5-0.8C294.9,343.6,294,343.6,294,343.6z"/>
			<path class="st27" d="M291.9,309.5l0.6,2.1l11.6-5.9c-1.9-0.2-3.9,0-5.7,0.7C295.2,307.6,291.8,309.6,291.9,309.5L291.9,309.5z"
				/>
			<path class="st22" d="M279.8,330.9c-4,1.8-7.2,3-7.2,3s-2.4,0.9,3.6,2.7c6,1.9,9.1,2.7,11,3.9c1.9,1.2-17.6-2.9-17.6-2.9
				s-6.5-1.3-5.2-4.8s12.9-11.2,12.9-11.2"/>
			<path class="st22" d="M284,340.3c0,0,4.6,0.7,5.9,0.5s2.5-1.1,2.5-1.1s0.4-0.4-1.1-0.2c-1.1,0.1-2.2,0.1-3.3,0
				c-0.2,0-1.2-0.2-1.1-0.6c0.1-0.6,2.1-0.2,1.6-0.6c0,0-1.2-0.4-2-0.3c-0.9,0.2-1.6,1.1-1.6,1.1C284.8,339.4,284,340.3,284,340.3z"
				/>
			<polygon class="st22" points="220.7,382.8 219.1,383.1 218,387.9 220.1,387 			"/>
			<polyline class="st22" points="249.3,365.7 248.1,365.2 245.4,367.9 245.7,368.1 			"/>
			<path class="st23" d="M248.5,365.4c0,0-6.1,5.5-7.1,5.9c-1,0.3-2.1,0-0.6-2s4.6-6,5.2-6.3c0.7-0.3,1.4,0,1.9,0.3
				c0.4,0.3,0.4,0.5,0.6,0.8C248.8,364.5,248.8,365,248.5,365.4z"/>
			<path class="st23" d="M220.3,382.3c0,0-1.4,9.2-2.1,10.2c-0.6,1-2.2,1.5-2-1.3c0.2-2.6-0.2-8.6,0.1-9.3c0.4-0.8,1.3-1,1.9-1
				c0.6,0,0.7,0.1,1.1,0.3C219.9,381.3,220.2,381.7,220.3,382.3z"/>
			<path class="st28" d="M303.8,340.4"/>
			<path class="st28" d="M298.7,314.9"/>
			<path class="st27" d="M289.8,325.1c0,0.7,0,1.4,0,2.1l-0.1,1.3l0.3-0.1c0,0,0.3-2,0-2.7L289.8,325.1z"/>
			<path class="st27" d="M296,335.2c0,0,1.6-1.7,1.8-2.5c0,0-0.2,1.8-0.8,2.7l-0.6,0.9c0-0.3,0.1-0.5,0.1-0.8c0-0.2-0.2-0.2-0.3-0.2
				"/>
			
				<linearGradient id="SVGID_10_" gradientUnits="userSpaceOnUse" x1="501.5242" y1="-2721.7063" x2="501.5242" y2="-2721.7063" gradientTransform="matrix(0.9865 0.1637 0.1637 -0.9865 246.9406 -2426.0308)">
				<stop  offset="0" style="stop-color:#754CA1"/>
				<stop  offset="1" style="stop-color:#5D346D"/>
			</linearGradient>
			<path class="st29" d="M296.2,341"/>
			<path class="st27" d="M295.7,341.5c0,0-0.5,0.7-0.3,1.1c0.1,0.3,0.7,0.5,1.7,0.8l0.9,0.3h-4c0,0,1.4-1.8,1.6-2L295.7,341.5z"/>
			<path class="st27" d="M318.2,320.9c0,0-0.8-2.4-2.4-3.5l-1.6-1.1c0,0,1.1,0.6,3.5-0.5l2.4-1.1c0,0-2.1,1.9-2.1,2.9
				C318.1,318.6,318.2,320.9,318.2,320.9z"/>
			
				<linearGradient id="SVGID_11_" gradientUnits="userSpaceOnUse" x1="510.871" y1="-2726.2698" x2="519.9927" y2="-2726.2698" gradientTransform="matrix(0.9865 0.1637 0.1637 -0.9865 246.9406 -2426.0308)">
				<stop  offset="0" style="stop-color:#333333"/>
				<stop  offset="1" style="stop-color:#333333"/>
			</linearGradient>
			<path class="st30" d="M312.9,350.9l0.6-1.2c0,0-4.6-4.4-8.4-5.1"/>
			
				<linearGradient id="SVGID_12_" gradientUnits="userSpaceOnUse" x1="499.5375" y1="-2724.5842" x2="505.8233" y2="-2724.5842" gradientTransform="matrix(0.9865 0.1637 0.1637 -0.9865 246.9406 -2426.0308)">
				<stop  offset="0" style="stop-color:#333333"/>
				<stop  offset="1" style="stop-color:#333333"/>
			</linearGradient>
			<path class="st31" d="M300.2,343.8c-2.3-0.2-6.2-0.2-6.2-0.2l-0.2,0.7"/>
			<path class="st32" d="M240.2,353.8c5.4-5.7,39.6,19.5,42.3,29.1c2.2,0.8,28.7-54.6,30.5-65.6c1.5-9.4-2.1-14.6-2.1-14.6
				s-12.4,5.2-16.4,7.8C290.6,313,247.3,340.6,240.2,353.8z"/>
			<path class="st33" d="M311,302.9c0.6,4.3,2.1,10.1-1.7,18.2c-3,6.2-21,35.7-38.3,48.2c5.9,5.1,10.6,10.2,11.5,13.5
				c2.2,0.8,28.7-54.6,30.5-65.6C314.3,309,311.7,304,311,302.9z"/>
			
				<linearGradient id="SVGID_13_" gradientUnits="userSpaceOnUse" x1="5307.228" y1="5347.479" x2="5395.7529" y2="5347.479" gradientTransform="matrix(1.000000e-02 -0.73 -0.65 -1.000000e-02 3845.2529 4209.4302)">
				<stop  offset="0" style="stop-color:#FFFFFF;stop-opacity:0"/>
				<stop  offset="1" style="stop-color:#838BC5;stop-opacity:0.4"/>
			</linearGradient>
			<path class="st34" d="M398.5,279c-5.9-0.1-10.3-6.2-9-12.8c5.8-29.9,29.7-52.2,57.8-51.6h0.2c5.2,0.1,9.3,5,9.2,10.8v0.5
				c-0.1,5.9-4.4,10.6-9.6,10.5h-0.2c-18.6-0.4-34.5,14.2-38.4,34c-1,5-4.9,8.7-9.5,8.6H398.5z"/>
			
				<linearGradient id="SVGID_14_" gradientUnits="userSpaceOnUse" x1="7045.0112" y1="5326.3711" x2="7133.5366" y2="5326.3711" gradientTransform="matrix(-0.73 -1.000000e-02 -1.000000e-02 0.65 5499.9951 -2919.8972)">
				<stop  offset="0" style="stop-color:#FFFFFF;stop-opacity:0"/>
				<stop  offset="1" style="stop-color:#838BC5;stop-opacity:0.4"/>
			</linearGradient>
			<path class="st35" d="M303.1,495.8c-0.1,5.9-6.2,10.3-12.8,9c-29.9-5.8-52.2-29.7-51.6-57.8v-0.2c0.1-5.2,5-9.3,10.8-9.2h0.5
				c5.9,0.1,10.6,4.4,10.5,9.6v0.2c-0.4,18.6,14.2,34.5,34,38.4c5,1,8.7,4.9,8.6,9.5V495.8z"/>
			<path class="st36" d="M459.5,264.8L459.5,264.8c4.6-7.3,4-16.8-1.4-23.6l0,0c7.3,4.6,16.8,4,23.6-1.4l0,0
				c-4.6,7.3-4,16.8,1.4,23.6l0,0C475.7,258.8,466.2,259.4,459.5,264.8z"/>
			<path class="st37" d="M452.2,291.1L452.2,291.1c2.9-4.6,2.5-10.5-0.9-14.7l0,0c4.6,2.9,10.5,2.5,14.7-0.9l0,0
				c-2.9,4.6-2.5,10.5,0.9,14.7l0,0C462.3,287.3,456.4,287.7,452.2,291.1z"/>
			<path class="st36" d="M243.8,455.4L243.8,455.4c-7.3-4.6-16.8-4-23.6,1.4l0,0c4.6-7.3,4-16.8-1.4-23.6l0,0
				c7.3,4.6,16.8,4,23.6-1.4l0,0C237.8,439.2,238.3,448.7,243.8,455.4z"/>
			<path class="st37" d="M270,462.7L270,462.7c-4.6-2.9-10.5-2.5-14.7,0.9l0,0c2.9-4.6,2.5-10.5-0.9-14.7l0,0
				c4.6,2.9,10.5,2.5,14.7-0.9l0,0C266.2,452.6,266.6,458.5,270,462.7z"/>
			<path class="st36" d="M276.1,171.3L276.1,171.3c-1.4-6-6.4-10.5-12.6-11.1l0,0c6-1.4,10.5-6.4,11.1-12.6l0,0
				c1.4,6,6.4,10.5,12.6,11.1l0,0C281.2,160.1,276.7,165.1,276.1,171.3z"/>
			<path class="st37" d="M285.6,188.1L285.6,188.1c-0.9-3.8-4-6.5-7.8-6.9l0,0c3.8-0.9,6.5-4,6.9-7.8l0,0c0.9,3.8,4,6.5,7.8,6.9l0,0
				C288.8,181.2,286,184.3,285.6,188.1z"/>
			<g id="Layer_16">
				<path class="st32" d="M362,438.7c0,0-13.1,21.3-12,47.5c0.3,7.3-4.1,13-4.6,20.8c-0.8,13-4.3,23.5-3.8,28.1
					c0,0,25.1,6.3,48.9-16.6c3.7-3.5,32.1-5.8,30.4-8.5c-6.7-10.8-46.1-71.7-46.1-71.7L362,438.7z"/>
				
					<linearGradient id="SVGID_15_" gradientUnits="userSpaceOnUse" x1="362.5508" y1="-1706.6691" x2="442.3768" y2="-1706.6691" gradientTransform="matrix(1 0 0 -1 0 -1202.8243)">
					<stop  offset="0" style="stop-color:#333333"/>
					<stop  offset="1" style="stop-color:#333333"/>
				</linearGradient>
				<path class="st38" d="M362.6,479.3l0.1,0.3l1.5,5.3c0.1,0.5,0.4,1,0.7,1.4c1.5,1.8,5.8,6.9,8,8.4c1.8,1.2,3.5,2.5,5.1,3.9
					l0.1,0.1l5.8,4.8c0.1,0.1,0.1,0.1,0.2,0.2c0.3,0.2,1.1,0.8,1.5,1.7c0.5,1,1.2,5.8,1.6,7.6c0.4,1.8,1.6,8.2,1.6,8.2l3,16.8
					c0.4,2,2.3,3.4,4.3,3.2h0.4c2.1-0.2,3.6-2.1,3.5-4.2l-0.3-4.4l-0.8-18.5c0-0.1,0-0.2,0-0.3c-0.2-1.4-1.4-10.9-1.4-11.4
					s-8.1-14.8-8.1-15.5c0-0.7,14.9-6.3,20.7-8.5c1.3-0.5,2.8-0.2,3.9,0.7l8,6.7l14,12.3c1.1,0.9,2.5,1.2,3.9,0.8l0,0
					c2-0.7,3.1-2.9,2.4-5c-0.1-0.4-0.3-0.8-0.6-1.1l-5.9-7.8c-0.1-0.1-0.2-0.2-0.3-0.3l-13.4-14.3c0,0-3.4-3.6-6.1-3.9
					c-2.4-0.3-20.7,0.2-24.6,0.4c-0.5,0-1,0.1-1.4,0.3L362.8,479"/>
				<path class="st17" d="M362,438.7c-1.1-0.6-3.6,1.1-9.4,8.2c0,0-7.5,9.2-6.2,11.7c0.1,0.2,0.3,0.5,0.6,0.6c0.4,0.3,1,0.7,2.1,1.5
					c3.4,2.4,4,3.8,5,3.5c1.1-0.3,1.9-2.2,2-2.5c0.2-0.5,0.2-0.8,0.3-0.8c0.8-0.1,2.6,18,6.6,18.3c0.6,0.1,1.1-0.3,1.4-0.5
					c8.1-5.9,26.5-6.3,26.8-11.9c0-0.4,0-0.8-0.2-1.1c-0.8-3-3.6-3-6.9-6.1c-2.1-2-3.7-4.6-4.6-7.4c-0.1-0.3-0.6-0.9-0.3-1.3
					c0.4-0.6,2.1,0.4,4.8,0.3c1.1,0,3.5,0,4.2-1.5c0.3-0.5,0.2-1,0.1-1.9c-0.4-4,1.1-5.8,0-7c-0.2-0.2-0.4-0.4-2.1-0.7
					c-4.7-0.9-6.5,0-9.6-1.2c-0.9-0.4-1-0.5-1.9-0.8c-1.1-0.3-3.4-1-4.9,0.1c-0.9,0.6-1.2,1.4-1.6,2c-0.2,0.4-0.6,0.7-1,0.8
					c-0.5,0.1-0.9,0.1-1.4,0s-1-0.3-1.5-0.5C362.8,440.2,362.7,439,362,438.7z"/>
				<path class="st39" d="M443.7,474.5l-32.5-4.9c-1.5-0.2-2.9,0.1-2.7-1.4l3.3-32.7c0.2-1.5,1.5-2.6,3-2.5l32.7,3.3
					c1.5,0.2,2.6,1.5,2.5,3l-3.3,32.7C446.6,473.5,445.2,474.6,443.7,474.5L443.7,474.5z"/>
				<path class="st40" d="M441.1,474.1l-33.1-5c-1.3-0.2-2.2-1.3-2-2.6l3.2-31.7c0.1-1.3,1.3-2.3,2.6-2.2l0,0l33.2,3.3
					c1.3,0.1,2.3,1.3,2.2,2.6l0,0l-3.3,33.4c-0.1,1.3-1.3,2.3-2.6,2.2C441.1,474.1,441.1,474.1,441.1,474.1z"/>
				<path class="st22" d="M388.6,441.2l2.8,0.1c0.1,0,0.2,0,0.2-0.1l17.7-10l0.9-0.5c0.1,0,0.2-0.1,0.2-0.1c0.6,0,3.4,0,3.5,0
					s2.2,0,2.5,0l0,0l4.9,0.8c0.1,0,0.2,0,0.2,0.1c0.1,0.1,0.3,0.2,0.3,0.4c0,0.1-1.1,0.8-1.5,1.1c-0.1,0-0.2,0.1-0.2,0.1L416,433
					h-0.1l-1.7,0.3c-0.2,0-0.4,0.3-0.4,0.5c0,0.1,0,0.2,0.1,0.2c0,0,0,0,0.1,0s0.8,0.2,1.2,0.4c0.2,0.1,0.3,0.3,0.3,0.5
					c0,0.1-0.1,0.2-0.2,0.3l0,0c-0.5,0.1-1.1,0.2-1.6,0.3c-0.1,0-2.6-0.5-3.1-0.6c0,0-0.1,0-0.2,0l-1.7,0.2c-0.1,0-0.2,0.1-0.3,0.1
					l-1.2,1.2l0,0L393,447.9c-0.1,0.1-0.3,0.2-0.4,0.3l-2.1,1.1c-0.1,0.1-0.2,0.1-0.3,0.1h-1.4c-0.2,0-0.5-0.2-0.5-0.4l-0.1-3l0,0
					l0.2-4.7"/>
				<path class="st23" d="M374.4,420.5c0,0,3.2-1.1,3.5-2.8c0.2-1.1-0.3-1.4-0.9-1.6c-0.2-0.1-0.3-0.3-0.3-0.5c0-0.1,0-0.1,0.1-0.1
					c0.5-0.6,1.3-1.6,1.2-2.4s-1.9-3.7-2.9-5.2c-0.2-0.2-0.5-0.3-0.7-0.1c-0.1,0-0.1,0.1-0.1,0.2c-0.2,0.5-0.8,1.1-1.8,1.9
					c-2.4,1.8-9.4,1.2-9.4,1.2s-5-0.2-6,4.2s0.6,6.5,0.2,8.4c-0.5,1.9-3.4,3.3-1.6,4c1,0.4,1.8,1.3,2.1,2.3c0,0,6.1,1.3,8.7,0.4
					C369,429.4,374.4,420.5,374.4,420.5z"/>
				<path class="st22" d="M362.1,432.4l0.2,6.4l1.1,1.4l1.3,0.8c0,0,2,0.5,2.6,0.2c0.7-0.3,0.5-0.1,0.7-0.3c0.4-0.4,0.7-0.8,0.9-1.3
					c0.2-0.3,0.4-0.6,0.6-0.9V433L362.1,432.4z"/>
				<path class="st41" d="M362.1,432.8L362.1,432.8l0.3,1l0,0c0.2,0.2,2.3,3.1,3.7,3.1h1.1c0,0,0.5,0,1.3-0.5s0.9-0.7,0.9-1
					c0.1-0.3,0.1-0.6,0-0.9c0-0.1-0.1-0.1-0.2-0.1l-6.8-2.2L362,432L362.1,432.8z"/>
				<path class="st22" d="M360.5,425.3c0,0-1-1-1.6-0.8c-0.1,0-0.1,0-0.2,0.1c-0.4,0.2-0.7,0.7-0.7,1.2c0,0.3,0,0.6,0,0.8
					c0.2,0.4,1.9,2.1,1.9,2.1c0.2,0.2,0.4,0.4,0.5,0.6c0.3,0.5,1,2.1,1.4,2.6s2,2.1,3,2.3c1,0.2,2.9,1,3.9,0.7
					c1-0.4,2.1-1.2,3.1-3.4c0.8-1.7,1.3-3.6,1.5-5.5c0.1-0.8,0-3.6,0-5.3c0-0.8-0.7-1.4-1.4-1.4h-8.6c-0.7,0-1.4,0.4-1.6,1.1v0.1
					c-0.1,0.1-0.1,0.3-0.1,0.5l-0.2,3.1c0,0.1,0,0.3-0.1,0.4c-0.1,0.3-0.3,0.8-0.5,0.8"/>
				<ellipse class="st42" cx="365.8" cy="426.7" rx="0.8" ry="0.9"/>
				<circle class="st43" cx="365.4" cy="426.3" r="0.2"/>
				<path class="st23" d="M363.9,424.9c0.4,0.2,1-0.7,2.5-0.1c0.3,0.1,0.3-1.2-1.2-1.1C363.9,423.8,363.7,424.8,363.9,424.9z"/>
				<ellipse class="st42" cx="371.7" cy="426.6" rx="0.8" ry="0.9"/>
				<circle class="st43" cx="371.4" cy="426.2" r="0.2"/>
				<path class="st23" d="M372.7,424.6c-0.4,0.2-1-0.7-2.5,0.1c-0.3,0.1-0.4-1.2,1.1-1.2C372.7,423.5,372.9,424.5,372.7,424.6z"/>
				<path class="st41" d="M368.8,429.7c-0.8,0-1.3-0.6-1.3-0.3c0,0.3,0.2,0.9,1.3,0.8c1.1,0,1.3-0.6,1.3-0.9
					S369.6,429.7,368.8,429.7z"/>
				<path class="st41" d="M368.6,432.7c-0.3,0-0.5-0.2-0.5-0.1c0,0.1,0.1,0.3,0.5,0.3s0.4-0.2,0.4-0.3
					C369,432.4,368.9,432.7,368.6,432.7z"/>
				<path class="st44" d="M368.6,431.9c-1.3,0.1-2.1-0.4-2.1-0.3c0,0.1,0.4,0.6,2.1,0.6c1.7-0.1,2.1-0.6,2.1-0.8
					C370.7,431.2,369.9,431.8,368.6,431.9z"/>
				
					<linearGradient id="SVGID_16_" gradientUnits="userSpaceOnUse" x1="391.782" y1="-1741.6564" x2="400.9582" y2="-1741.6564" gradientTransform="matrix(1 0 0 -1 0 -1202.8243)">
					<stop  offset="0" style="stop-color:#333333"/>
					<stop  offset="1" style="stop-color:#333333"/>
				</linearGradient>
				<path class="st45" d="M400.6,535.9c-1.8,0.8-7.4,2.1-8.6,2.3c-0.1,0-0.2,0.2-0.2,0.3l0,0l0.9,3c0,0.1,0.1,0.2,0.2,0.2l7.7-0.9
					c0.1,0,0.3-0.1,0.3-0.2v-4.4C400.9,536,400.8,535.9,400.6,535.9z"/>
				
					<linearGradient id="SVGID_17_" gradientUnits="userSpaceOnUse" x1="434.7473" y1="-1699.3907" x2="445.4563" y2="-1699.3907" gradientTransform="matrix(1 0 0 -1 0 -1202.8243)">
					<stop  offset="0" style="stop-color:#333333"/>
					<stop  offset="1" style="stop-color:#333333"/>
				</linearGradient>
				<path class="st46" d="M444,493.3c-0.1-0.4-0.5-0.4-0.8-0.2c-1.8,1.2-8.4,4.6-8.4,4.7c-0.1,0.1,1.9,2.3,2.3,2.3
					c0.3,0,8.3-3,8.4-3.2C445.6,496.7,444.3,494.4,444,493.3z"/>
				
					<linearGradient id="SVGID_18_" gradientUnits="userSpaceOnUse" x1="369.2148" y1="-1708.7028" x2="399.8564" y2="-1708.7028" gradientTransform="matrix(1 0 0 -1 0 -1202.8243)">
					<stop  offset="0" style="stop-color:#4D4D4D"/>
					<stop  offset="1" style="stop-color:#333333"/>
				</linearGradient>
				<path class="st47" d="M369.8,478c-0.2,0.3-0.3,0.6-0.3,0.9l-0.2,0.8c-0.1,0.6,0,1.3,0.4,1.9c1.9,3,8.7,12.1,12,13.5
					c3.9,1.6,6.7,5.4,6.8,5.7c1.3,2.1,2.1,4.4,2.2,6.8c0.4,4.3,1.7,16,1.7,16l1.4,10.8c0.2,1.7,1.7,2.9,3.4,2.6c0.2,0,0.3,0,0.4-0.1
					l0,0c1.4-0.4,2.3-1.6,2.2-3.1l-0.5-14.1c0,0-0.9-12.4-1.3-14.6c-0.5-2.2-0.8-5.6-3.7-10.2c-2.9-4.6-5.4-8.2-5.4-8.2l-6.1-8.9
					c-0.8-1.2-1.9-2.1-3.3-2.5c-1.3-0.4-2.8-0.8-3.9-0.6c-1.8,0.4-3.8,1.3-5,2.2c-0.3,0.3-0.6,0.6-0.8,1L369.8,478L369.8,478z"/>
				<path class="st48" d="M395,541.4c0,0,0,0.1,0,0.2c0.1,0.6,0.2,2.4,0.6,3.4c0.4,1.2,1.6,2.1,2.7,1.4c1-0.7,1.3-1.9,1.2-2.4
					s-0.3-3.1-0.3-3.1L395,541.4z"/>
				<path class="st48" d="M443.8,497.5l-4.2,1.6c0,0,3,2.9,3.2,3s1.7,0.8,2.5,0.3s1.2-1.1,0.6-1.9
					C445.4,499.7,443.8,497.5,443.8,497.5z"/>
				<path class="st23" d="M448.2,499.5c0.2-0.2,5.5,0,6.1-0.2c0.6-0.2,2-0.1,2.1,0.1c0.1,0.1,0.9,1.4,1.2,1.9c0.1,0.1,0,0.3-0.1,0.4
					l0,0c-0.6,0.3-1.9,1.1-2,1.1s-11.5,5-12.3,5.1s-1.6-4.1-1.4-5c0.1-0.2,0.2-1,0.4-1c0.3-0.1,0.6,0.3,1.1,0.5
					c0.5,0.2,1,0.3,1.5,0.1c0.3-0.1,0.5-0.2,0.7-0.4c0.1-0.1,0.2-0.3,0.3-0.4c0.2-0.3,0.1-0.7-0.1-1c-0.1-0.1-0.3-0.4-0.2-0.4
					L448.2,499.5z"/>
				<path class="st49" d="M457.2,500.6c-0.1,0-0.2,0-0.2,0c-1.3,0.5-14.3,5.9-14.4,6.1c0,0.2,0.1,0.4,0.2,0.5
					c0.2,0.2,0.2,0.6,0.4,0.6c0.4,0,0.7-0.1,1.1-0.2c1.3-0.5,3.5-1.5,5.9-2.5c1.7-0.8,3.6-1.5,5-2.1c0.4-0.2,0.5-0.2,0.8-0.3
					c0.6-0.3,1.3-0.7,1.6-0.8c0.2-0.1,0.2-0.3,0.2-0.4c0-0.1-0.1-0.2-0.2-0.3C457.5,500.9,457.4,500.7,457.2,500.6z"/>
				<path class="st23" d="M401.5,544.9c0.3,0,4.1,3.6,4.7,3.9c0.6,0.3,1.6,1.2,1.6,1.5c0,0.2-0.2,1.7-0.3,2.3c0,0.1-0.2,0.2-0.3,0.2
					l0,0c-0.6-0.1-2.2-0.4-2.2-0.5c-0.1-0.1-11.9-3.9-12.5-4.3c-0.6-0.4,1.5-4.2,2.3-4.6c0.2-0.1,0.4-0.6,0.6-0.4
					c0.3,0.3,0.6,0.6,0.8,1c0.2,0.5,0.6,0.9,1.1,1.1c0.3,0.1,0.5,0.2,0.8,0.1c0.2,0,0.3-0.1,0.5-0.1c0.3-0.1,0.5-0.4,0.6-0.6
					c0-0.1,0.1-0.1,0.1-0.2c0,0,0.1-0.5,0.2-0.4C400,543.9,401.5,544.9,401.5,544.9z"/>
				<path class="st49" d="M407.5,551.7c0-0.1-0.1-0.1-0.2-0.2c-1.3-0.4-14.6-5-14.8-4.9c-0.1,0.2-0.2,0.3-0.2,0.5
					c0,0.3-0.2,0.6-0.1,0.8c0.3,0.2,0.6,0.4,1,0.5c1.3,0.5,3.6,1.2,6.1,2c1.8,0.6,3.7,1.3,5.2,1.7c0.4,0.1,0.5,0.2,0.8,0.3
					c0.7,0.2,1.5,0.3,1.8,0.4c0.2,0.1,0.3,0,0.4-0.2c0-0.1,0.1-0.2,0.1-0.4C407.6,552.1,407.6,551.9,407.5,551.7z"/>
				<path class="st27" d="M356.3,461l1.5,6.5c0,0,2.4,11.8,4.8,11.8h0.5l0.4-0.1c0.1,0,0.2-0.1,0.3-0.1c0.4-0.2,1.5-1,2-1.3
					c0.2-0.1,0.4-0.2,0.7-0.4c0.6-0.3,1.2-0.6,1.5-0.8c0.4-0.2-9.1-17-9.6-17.6c0,0-0.1-0.1-0.1-0.2
					C357.9,458.8,356.3,461,356.3,461z"/>
				<path class="st50" d="M395.9,543.5l-48.3-20.6c-1.7-0.8-2.6-2.7-2-4.5l5.5-18.1c0.6-2,2.6-3.1,4.6-2.6l47.6,13.9
					c1.8,0.6,2.9,2.4,2.5,4.2l-4.9,24.8C400.5,543,398.1,544.4,395.9,543.5z"/>
				<path class="st51" d="M394.7,541l-46.6-19.9c-1.6-0.7-2.5-2.5-2-4.2l5.1-16.9c0.6-1.8,2.5-2.9,4.3-2.3l45.9,13.6
					c1.7,0.5,2.8,2.2,2.4,4l-4.4,23.2c-0.4,1.9-2.2,3.2-4.1,2.8C395.2,541.2,394.9,541.1,394.7,541z"/>
				<path class="st52" d="M395.9,523.5l-40.8-14.6c-0.8-0.3-1.2-1.1-0.9-1.9l0.9-2.8c0.2-0.8,1.1-1.3,1.9-1c0,0,0,0,0.1,0l40.4,14.3
					c0.7,0.2,1.1,0.9,1,1.7l-0.5,3.2c-0.1,0.8-0.9,1.4-1.7,1.3C396.1,523.5,396,523.5,395.9,523.5z"/>
				<path class="st22" d="M346,461.6l-2.5,6v0.1l-0.4,1.7c-0.1,0.4-0.1,0.8,0.1,1.2l6.8,19.5c0.1,0.2,0.1,0.5,0.1,0.7v6.8
					c0,0.4,0.3,0.6,0.6,0.6l0,0l0,0c0.1,0,0.2,0,0.2,0.1l0.4,0.5c0.1,0.1,0.1,0.1,0.2,0.1h0.3c0.1,0,0.2,0.1,0.3,0.2l0.4,1
					c0,0.1,0.2,0.2,0.3,0.2h0.6c0.2,0,0.3,0.1,0.3,0.3v0.1l-0.3,0.8c0,0.1,0,0.3,0.1,0.3c0.2,0.2,0.6,0.3,0.8,0.3
					c0.3-0.1,1.2-1.2,1.5-1.5c0.4-0.7,0.6-1.4,0.9-2.1c0-0.8,0-1.7,0-2.5c0,0,0,0,0-0.1l-7-25.9c-0.2-0.6,0-1.2,0.4-1.7l3.5-3.7
					c0.1-0.1,0.2-0.2,0.2-0.3l0.1-0.3c0.1-0.1,0-0.3-0.1-0.4l-7.5-5.5l0,0c-0.1,0.2-0.1,1.2-0.2,2
					C346.2,460.9,346.1,461.3,346,461.6z"/>
				<path class="st53" d="M416.6,437.9l11.3,1.1c1.5,0.2,2.6,1.5,2.5,3l-1.1,11.4c-0.2,1.5-1.5,2.6-3,2.5l-11.3-1.1
					c-1.5-0.2-2.6-1.5-2.5-3l1.1-11.4C413.7,438.8,415,437.7,416.6,437.9z"/>
			</g>
		</g>
	</g>
</g>
</svg>
